<?xml version="1.0" standalone="no"?>
<!DOCTYPE svg PUBLIC "-//W3C//DTD SVG 20010904//EN"
 "http://www.w3.org/TR/2001/REC-SVG-20010904/DTD/svg10.dtd">
<svg version="1.0" xmlns="http://www.w3.org/2000/svg"
 width="316.000000pt" height="315.000000pt" viewBox="0 0 316.000000 315.000000"
 preserveAspectRatio="xMidYMid meet">

<g transform="translate(0.000000,315.000000) scale(0.100000,-0.100000)"
fill="#000000" stroke="none">
<path d="M1 2783 c1 -226 5 -343 9 -303 23 192 143 400 298 514 57 41 167 97
242 122 52 18 124 19 1335 24 l1280 5 -1582 3 -1583 2 1 -367z"/>
<path d="M633 2505 c-60 -26 -58 5 -58 -775 0 -543 3 -720 12 -736 30 -52 51
-54 466 -54 236 0 396 4 412 10 23 9 36 5 87 -26 81 -50 114 -55 217 -38 47 7
93 14 102 14 20 0 45 -46 41 -76 -2 -12 3 -35 11 -51 28 -53 107 -153 122
-153 26 0 535 383 535 402 0 26 -105 162 -135 176 -14 7 -35 12 -46 12 -31 0
-42 38 -30 102 5 30 6 70 2 90 -9 40 -270 429 -304 453 -36 25 -81 19 -129
-19 l-44 -33 -32 28 c-47 42 -99 37 -154 -14 -26 -25 -29 -25 -58 -10 -30 15
-66 14 -102 -2 -17 -7 -18 12 -18 319 0 360 -1 364 -62 385 -50 17 -794 14
-835 -4z m831 -51 c11 -10 16 -34 16 -75 l0 -59 -430 0 -430 0 0 39 c0 45 15
92 33 103 7 4 188 8 404 8 343 0 394 -2 407 -16z m16 -444 c0 -137 -2 -250 -4
-250 -2 0 -36 45 -76 99 -71 98 -106 126 -146 120 -11 -2 -40 9 -65 24 -190
113 -431 -51 -391 -267 24 -129 126 -214 258 -216 64 0 109 14 156 51 20 16
39 29 41 29 6 0 192 -250 206 -277 6 -12 11 -31 11 -42 0 -17 -5 -20 -27 -16
-109 17 -139 15 -192 -11 -29 -15 -55 -33 -58 -40 -4 -11 -58 -14 -289 -14
l-284 0 0 530 0 530 430 0 430 0 0 -250z m-331 -44 l29 -16 -34 -34 c-19 -19
-34 -42 -34 -51 0 -10 -21 -42 -46 -72 l-46 -53 -29 31 c-28 30 -31 31 -46 16
-15 -15 -13 -20 21 -61 21 -26 43 -46 50 -46 7 0 34 23 60 50 26 28 48 50 51
50 2 0 24 -30 50 -66 46 -64 47 -66 28 -86 -28 -32 -93 -58 -147 -58 -97 0
-184 67 -206 161 -25 105 38 217 141 248 43 13 119 7 158 -13z m308 -271 c94
-126 178 -231 187 -233 40 -8 26 31 -43 123 -43 57 -71 104 -71 119 0 32 52
71 83 62 13 -4 62 -60 117 -134 52 -70 102 -127 110 -127 33 0 18 38 -49 128
-39 51 -71 101 -71 109 0 21 56 68 81 68 13 0 52 -44 121 -137 57 -76 110
-138 118 -138 32 0 19 38 -39 118 -34 46 -61 93 -61 105 0 26 52 64 82 60 17
-2 59 -56 160 -203 75 -110 138 -211 141 -225 3 -13 -1 -54 -7 -91 -11 -54
-11 -69 0 -84 8 -10 14 -22 14 -25 0 -3 -64 -53 -142 -111 -78 -57 -164 -121
-192 -141 l-50 -38 -25 30 -26 30 -70 -15 c-38 -8 -96 -15 -128 -15 -52 0 -66
5 -140 50 -103 63 -181 91 -277 99 -73 6 -75 7 -78 34 -3 23 5 37 39 69 l43
41 112 -7 c74 -4 115 -2 119 4 11 18 7 97 -5 120 -10 19 -199 277 -311 426
-38 50 -46 77 -31 102 16 24 77 63 97 60 13 -2 81 -84 192 -233z m970 -550
c32 -23 97 -115 87 -125 -5 -4 -110 -82 -234 -174 -161 -119 -227 -162 -236
-155 -7 5 -29 34 -49 64 -27 39 -36 60 -32 77 8 29 399 322 437 327 3 1 15 -6
27 -14z m-1277 -33 c0 -60 28 -79 125 -84 47 -3 92 -11 110 -21 28 -15 8 -16
-344 -17 -436 0 -411 -6 -411 97 l0 63 260 0 260 0 0 -38z"/>
<path d="M3150 662 c0 -85 -61 -246 -132 -350 -93 -135 -261 -251 -430 -296
-49 -14 -30 -15 260 -15 l312 -1 0 350 c0 193 -2 350 -5 350 -3 0 -5 -17 -5
-38z"/>
</g>
</svg>
